<mxfile host="app.diagrams.net" modified="2020-09-07T07:25:33.140Z" agent="5.0 (Windows NT 10.0; WOW64) AppleWebKit/537.36 (KHTML, like Gecko) Chrome/84.0.4147.135 Safari/537.36" etag="PEtRbENld7mpPVGkCaAk" version="13.1.1" type="github">
  <diagram id="0-RFVuraUf7fSvYIvw6F" name="Page-1">
    <mxGraphModel dx="1422" dy="713" grid="1" gridSize="10" guides="1" tooltips="1" connect="1" arrows="1" fold="1" page="1" pageScale="1" pageWidth="827" pageHeight="1169" math="0" shadow="0">
      <root>
        <mxCell id="0" />
        <mxCell id="1" parent="0" />
        <mxCell id="lWT4EILyouGZOtEGmvAP-1" value="开始" style="ellipse;whiteSpace=wrap;html=1;" vertex="1" parent="1">
          <mxGeometry x="100" y="70" width="100" height="40" as="geometry" />
        </mxCell>
        <mxCell id="lWT4EILyouGZOtEGmvAP-3" value="结束" style="ellipse;whiteSpace=wrap;html=1;" vertex="1" parent="1">
          <mxGeometry x="100" y="780" width="100" height="40" as="geometry" />
        </mxCell>
        <mxCell id="lWT4EILyouGZOtEGmvAP-4" value="&lt;span lang=&quot;EN-US&quot; style=&quot;font-size: 10.5pt ; font-family: &amp;#34;times new roman&amp;#34; , serif&quot;&gt;CMPP­_CONNECT&lt;/span&gt;" style="rounded=0;whiteSpace=wrap;html=1;" vertex="1" parent="1">
          <mxGeometry x="90" y="450" width="120" height="60" as="geometry" />
        </mxCell>
        <mxCell id="lWT4EILyouGZOtEGmvAP-5" value="ip,port" style="shape=parallelogram;perimeter=parallelogramPerimeter;whiteSpace=wrap;html=1;" vertex="1" parent="1">
          <mxGeometry x="90" y="150" width="120" height="60" as="geometry" />
        </mxCell>
        <mxCell id="lWT4EILyouGZOtEGmvAP-6" value="建立tcp连接" style="rounded=0;whiteSpace=wrap;html=1;" vertex="1" parent="1">
          <mxGeometry x="90" y="250" width="120" height="60" as="geometry" />
        </mxCell>
        <mxCell id="lWT4EILyouGZOtEGmvAP-7" value="账户u,密码p,接入号n" style="shape=parallelogram;perimeter=parallelogramPerimeter;whiteSpace=wrap;html=1;" vertex="1" parent="1">
          <mxGeometry x="90" y="350" width="120" height="60" as="geometry" />
        </mxCell>
        <mxCell id="lWT4EILyouGZOtEGmvAP-8" value="&lt;span style=&quot;font-family: &amp;#34;times new roman&amp;#34; , serif ; font-size: 14px&quot;&gt;CMPP­_CONNECT&lt;br&gt;_RESP 是否在T内返回&lt;br&gt;&lt;/span&gt;" style="rhombus;whiteSpace=wrap;html=1;" vertex="1" parent="1">
          <mxGeometry x="90" y="550" width="120" height="50" as="geometry" />
        </mxCell>
        <mxCell id="lWT4EILyouGZOtEGmvAP-9" value="" style="endArrow=classic;html=1;exitX=0.5;exitY=1;exitDx=0;exitDy=0;entryX=0.5;entryY=0;entryDx=0;entryDy=0;" edge="1" parent="1" source="lWT4EILyouGZOtEGmvAP-12" target="lWT4EILyouGZOtEGmvAP-3">
          <mxGeometry width="50" height="50" relative="1" as="geometry">
            <mxPoint x="150" y="680" as="sourcePoint" />
            <mxPoint x="440" y="430" as="targetPoint" />
          </mxGeometry>
        </mxCell>
        <mxCell id="lWT4EILyouGZOtEGmvAP-11" value="" style="endArrow=classic;html=1;exitX=0.5;exitY=1;exitDx=0;exitDy=0;entryX=0.5;entryY=0;entryDx=0;entryDy=0;" edge="1" parent="1" source="lWT4EILyouGZOtEGmvAP-8" target="lWT4EILyouGZOtEGmvAP-12">
          <mxGeometry width="50" height="50" relative="1" as="geometry">
            <mxPoint x="150" y="600" as="sourcePoint" />
            <mxPoint x="150" y="640" as="targetPoint" />
          </mxGeometry>
        </mxCell>
        <mxCell id="lWT4EILyouGZOtEGmvAP-25" value="是" style="edgeLabel;html=1;align=center;verticalAlign=middle;resizable=0;points=[];" vertex="1" connectable="0" parent="lWT4EILyouGZOtEGmvAP-11">
          <mxGeometry x="-0.2667" y="1" relative="1" as="geometry">
            <mxPoint x="-1" as="offset" />
          </mxGeometry>
        </mxCell>
        <mxCell id="lWT4EILyouGZOtEGmvAP-12" value="链路建立成功" style="rounded=0;whiteSpace=wrap;html=1;" vertex="1" parent="1">
          <mxGeometry x="90" y="690" width="120" height="60" as="geometry" />
        </mxCell>
        <mxCell id="lWT4EILyouGZOtEGmvAP-15" value="&lt;span style=&quot;font-family: &amp;#34;times new roman&amp;#34; , serif ; font-size: 14px&quot;&gt;重试超过N-1&lt;br&gt;&lt;/span&gt;" style="rhombus;whiteSpace=wrap;html=1;" vertex="1" parent="1">
          <mxGeometry x="290" y="550" width="120" height="50" as="geometry" />
        </mxCell>
        <mxCell id="lWT4EILyouGZOtEGmvAP-16" value="链路建立失败" style="rounded=0;whiteSpace=wrap;html=1;" vertex="1" parent="1">
          <mxGeometry x="300" y="770" width="120" height="60" as="geometry" />
        </mxCell>
        <mxCell id="lWT4EILyouGZOtEGmvAP-17" value="" style="endArrow=classic;html=1;exitX=0.5;exitY=1;exitDx=0;exitDy=0;entryX=0.433;entryY=0.033;entryDx=0;entryDy=0;entryPerimeter=0;" edge="1" parent="1" source="lWT4EILyouGZOtEGmvAP-15" target="lWT4EILyouGZOtEGmvAP-16">
          <mxGeometry width="50" height="50" relative="1" as="geometry">
            <mxPoint x="300" y="660" as="sourcePoint" />
            <mxPoint x="350" y="610" as="targetPoint" />
          </mxGeometry>
        </mxCell>
        <mxCell id="lWT4EILyouGZOtEGmvAP-26" value="是" style="edgeLabel;html=1;align=center;verticalAlign=middle;resizable=0;points=[];" vertex="1" connectable="0" parent="lWT4EILyouGZOtEGmvAP-17">
          <mxGeometry x="-0.3031" y="5" relative="1" as="geometry">
            <mxPoint x="-5.33" as="offset" />
          </mxGeometry>
        </mxCell>
        <mxCell id="lWT4EILyouGZOtEGmvAP-18" value="" style="endArrow=classic;html=1;exitX=0.5;exitY=1;exitDx=0;exitDy=0;entryX=0.5;entryY=0;entryDx=0;entryDy=0;" edge="1" parent="1" source="lWT4EILyouGZOtEGmvAP-1" target="lWT4EILyouGZOtEGmvAP-5">
          <mxGeometry width="50" height="50" relative="1" as="geometry">
            <mxPoint x="390" y="290" as="sourcePoint" />
            <mxPoint x="440" y="240" as="targetPoint" />
          </mxGeometry>
        </mxCell>
        <mxCell id="lWT4EILyouGZOtEGmvAP-19" value="" style="endArrow=classic;html=1;exitX=0.5;exitY=1;exitDx=0;exitDy=0;" edge="1" parent="1" source="lWT4EILyouGZOtEGmvAP-5" target="lWT4EILyouGZOtEGmvAP-6">
          <mxGeometry width="50" height="50" relative="1" as="geometry">
            <mxPoint x="330" y="250" as="sourcePoint" />
            <mxPoint x="380" y="200" as="targetPoint" />
          </mxGeometry>
        </mxCell>
        <mxCell id="lWT4EILyouGZOtEGmvAP-20" value="" style="endArrow=classic;html=1;exitX=0.5;exitY=1;exitDx=0;exitDy=0;entryX=0.5;entryY=0;entryDx=0;entryDy=0;" edge="1" parent="1" source="lWT4EILyouGZOtEGmvAP-6" target="lWT4EILyouGZOtEGmvAP-7">
          <mxGeometry width="50" height="50" relative="1" as="geometry">
            <mxPoint x="250" y="370" as="sourcePoint" />
            <mxPoint x="300" y="320" as="targetPoint" />
          </mxGeometry>
        </mxCell>
        <mxCell id="lWT4EILyouGZOtEGmvAP-21" value="" style="endArrow=classic;html=1;exitX=0.5;exitY=1;exitDx=0;exitDy=0;entryX=0.5;entryY=0;entryDx=0;entryDy=0;" edge="1" parent="1" source="lWT4EILyouGZOtEGmvAP-7" target="lWT4EILyouGZOtEGmvAP-4">
          <mxGeometry width="50" height="50" relative="1" as="geometry">
            <mxPoint x="140" y="430" as="sourcePoint" />
            <mxPoint x="140" y="470" as="targetPoint" />
          </mxGeometry>
        </mxCell>
        <mxCell id="lWT4EILyouGZOtEGmvAP-22" value="" style="endArrow=classic;html=1;exitX=0.5;exitY=1;exitDx=0;exitDy=0;entryX=0.5;entryY=0;entryDx=0;entryDy=0;" edge="1" parent="1" source="lWT4EILyouGZOtEGmvAP-4" target="lWT4EILyouGZOtEGmvAP-8">
          <mxGeometry width="50" height="50" relative="1" as="geometry">
            <mxPoint x="160" y="530" as="sourcePoint" />
            <mxPoint x="160" y="570" as="targetPoint" />
          </mxGeometry>
        </mxCell>
        <mxCell id="lWT4EILyouGZOtEGmvAP-23" value="" style="endArrow=classic;html=1;exitX=1;exitY=0.5;exitDx=0;exitDy=0;entryX=0;entryY=0.5;entryDx=0;entryDy=0;" edge="1" parent="1" source="lWT4EILyouGZOtEGmvAP-8" target="lWT4EILyouGZOtEGmvAP-15">
          <mxGeometry width="50" height="50" relative="1" as="geometry">
            <mxPoint x="240" y="570" as="sourcePoint" />
            <mxPoint x="240" y="610" as="targetPoint" />
            <Array as="points">
              <mxPoint x="260" y="575" />
            </Array>
          </mxGeometry>
        </mxCell>
        <mxCell id="lWT4EILyouGZOtEGmvAP-24" value="否" style="edgeLabel;html=1;align=center;verticalAlign=middle;resizable=0;points=[];" vertex="1" connectable="0" parent="lWT4EILyouGZOtEGmvAP-23">
          <mxGeometry x="0.25" y="-15" relative="1" as="geometry">
            <mxPoint x="-14" y="-15" as="offset" />
          </mxGeometry>
        </mxCell>
        <mxCell id="lWT4EILyouGZOtEGmvAP-27" value="" style="endArrow=classic;html=1;exitX=0;exitY=0.5;exitDx=0;exitDy=0;entryX=1;entryY=0.5;entryDx=0;entryDy=0;" edge="1" parent="1" source="lWT4EILyouGZOtEGmvAP-16" target="lWT4EILyouGZOtEGmvAP-3">
          <mxGeometry width="50" height="50" relative="1" as="geometry">
            <mxPoint x="270" y="850" as="sourcePoint" />
            <mxPoint x="320" y="800" as="targetPoint" />
          </mxGeometry>
        </mxCell>
        <mxCell id="lWT4EILyouGZOtEGmvAP-28" value="" style="endArrow=classic;html=1;exitX=0.5;exitY=0;exitDx=0;exitDy=0;entryX=1;entryY=0.5;entryDx=0;entryDy=0;edgeStyle=orthogonalEdgeStyle;" edge="1" parent="1" source="lWT4EILyouGZOtEGmvAP-15" target="lWT4EILyouGZOtEGmvAP-4">
          <mxGeometry width="50" height="50" relative="1" as="geometry">
            <mxPoint x="340" y="500" as="sourcePoint" />
            <mxPoint x="390" y="450" as="targetPoint" />
          </mxGeometry>
        </mxCell>
        <mxCell id="lWT4EILyouGZOtEGmvAP-29" value="否" style="edgeLabel;html=1;align=center;verticalAlign=middle;resizable=0;points=[];" vertex="1" connectable="0" parent="lWT4EILyouGZOtEGmvAP-28">
          <mxGeometry x="-0.3333" y="25" relative="1" as="geometry">
            <mxPoint x="-25" y="-26" as="offset" />
          </mxGeometry>
        </mxCell>
      </root>
    </mxGraphModel>
  </diagram>
</mxfile>
